# xmcd CD database file
#
# Track frame offsets:
#	150
#	14988
#	34234
#	53422
#	75044
#	89289
#	107060
#	131411
#	156041
#	174047
#	192329
#	208645
#	228801
#	249609
#
# Disc length: 3522 seconds
#
# Revision: 2
# Processed by: cddbd v1.5.2PL0 Copyright (c) Steve Scherf et al.
# Submitted via: CDex 1.51
#
DISCID=a30dc00e
DTITLE=Daniel Boaventura - Songs 4 U
DYEAR=2009
DGENRE=Blues
TTITLE0=Fly Me To The Moon
TTITLE1=I Loved You
TTITLE2=Wake Up Call
TTITLE3=The Captain Of Her Heart
TTITLE4=The Windmills Of Your Mind
TTITLE5=You're So Vain
TTITLE6=Song For You
TTITLE7=This Masquerade
TTITLE8=If
TTITLE9=Baby, Now That I've Found You
TTITLE10=Your Smiling Face
TTITLE11=Send In Ihe Clowns
TTITLE12=Hello, Detroit
TTITLE13=I'm In The Mood For Love
EXTD=YEAR: 2009
EXTT0=
EXTT1=
EXTT2=
EXTT3=
EXTT4=
EXTT5=
EXTT6=
EXTT7=
EXTT8=
EXTT9=
EXTT10=
EXTT11=
EXTT12=
EXTT13=
PLAYORDER=
